<svg xmlns="http://www.w3.org/2000/svg" width="800" height="600" viewBox="0 0 800 600">
  <rect width="800" height="600" fill="#1a1a24"/>
  <rect x="100" y="80" width="200" height="150" fill="none" stroke="#4a4a5a" stroke-width="1.5" rx="2"/>
  <rect x="120" y="100" width="80" height="60" fill="#2a2a38" rx="1"/>
  <rect x="210" y="95" width="70" height="70" fill="#252535" rx="1"/>
  <rect x="150" y="170" width="120" height="45" fill="#2a2a38" rx="1"/>
  <rect x="320" y="120" width="180" height="220" fill="none" stroke="#3a3a4a" stroke-width="1" rx="2"/>
  <rect x="340" y="140" width="140" height="80" fill="#222230" rx="1"/>
  <rect x="350" y="230" width="60" height="90" fill="#252535" rx="1"/>
  <rect x="420" y="230" width="50" height="90" fill="#252535" rx="1"/>
  <rect x="80" y="260" width="220" height="180" fill="none" stroke="#4a4a5a" stroke-width="1.5" rx="2"/>
  <rect x="100" y="280" width="90" height="140" fill="#2a2a3a" rx="1"/>
  <rect x="200" y="300" width="80" height="120" fill="#252535" rx="1"/>
  <rect x="520" y="80" width="200" height="340" fill="none" stroke="#3a3a4a" stroke-width="1" rx="2"/>
  <rect x="540" y="100" width="160" height="60" fill="#1e1e2c" rx="1"/>
  <rect x="540" y="170" width="70" height="100" fill="#252535" rx="1"/>
  <rect x="620" y="170" width="70" height="100" fill="#222230" rx="1"/>
  <rect x="540" y="280" width="160" height="120" fill="#1e1e2c" rx="1"/>
  <line x1="0" y1="450" x2="800" y2="450" stroke="#2a2a3a" stroke-width="1" stroke-dasharray="4,8"/>
  <line x1="0" y1="500" x2="800" y2="500" stroke="#2a2a3a" stroke-width="0.5" stroke-dasharray="2,12"/>
  <rect x="80" y="460" width="640" height="120" fill="none" stroke="#2a2a3a" stroke-width="1" rx="2"/>
  <circle cx="260" cy="390" r="8" fill="none" stroke="#C8A96E" stroke-width="1.2" opacity="0.6"/>
  <line x1="260" y1="382" x2="260" y2="398" stroke="#C8A96E" stroke-width="0.8" opacity="0.5"/>
  <line x1="252" y1="390" x2="268" y2="390" stroke="#C8A96E" stroke-width="0.8" opacity="0.5"/>
  <text x="400" y="545" text-anchor="middle" fill="#3a3a4a" font-family="monospace" font-size="10">SCAN_DATA &amp;bull; 2024</text>
</svg>
